<svg width="1200" height="760" viewBox="0 0 1200 760" fill="none" xmlns="http://www.w3.org/2000/svg">
  <rect width="1200" height="760" rx="36" fill="url(#bg)"/>
  <rect x="45" y="45" width="1110" height="670" rx="26" fill="url(#panel)" stroke="#8CB9EA" stroke-opacity="0.5"/>
  <path d="M130 618H1070" stroke="#6D9BD1" stroke-opacity="0.5" stroke-width="2"/>

  <ellipse cx="600" cy="563" rx="210" ry="42" fill="#153C6C" fill-opacity="0.22"/>
  <rect x="526" y="288" width="148" height="251" rx="24" fill="#F2F8FF" stroke="#6FA2DD"/>
  <rect x="560" y="321" width="80" height="139" rx="16" fill="#0E2A4D"/>
  <rect x="591" y="460" width="18" height="95" rx="9" fill="#0E2A4D"/>
  <rect x="492" y="549" width="216" height="18" rx="9" fill="#0E2A4D"/>

  <circle cx="303" cy="205" r="74" fill="#9ED6FF" fill-opacity="0.6"/>
  <circle cx="901" cy="205" r="74" fill="#9ED6FF" fill-opacity="0.6"/>

  <rect x="171" y="144" width="264" height="95" rx="16" fill="#EFF7FF" stroke="#90BCEB"/>
  <text x="202" y="196" fill="#1E578F" font-family="'IBM Plex Mono', monospace" font-size="28">Developers Week</text>

  <rect x="765" y="144" width="264" height="95" rx="16" fill="#EFF7FF" stroke="#90BCEB"/>
  <text x="837" y="196" fill="#1E578F" font-family="'IBM Plex Mono', monospace" font-size="28">TDWI</text>

  <rect x="392" y="90" width="415" height="88" rx="15" fill="#EBF5FF" stroke="#8FBCEB"/>
  <text x="430" y="146" fill="#1B4E83" font-family="'IBM Plex Mono', monospace" font-size="34">Speaker Sessions</text>

  <defs>
    <linearGradient id="bg" x1="94" y1="50" x2="1048" y2="720" gradientUnits="userSpaceOnUse">
      <stop stop-color="#E9F4FF"/>
      <stop offset="1" stop-color="#D8EBFF"/>
    </linearGradient>
    <linearGradient id="panel" x1="600" y1="45" x2="600" y2="715" gradientUnits="userSpaceOnUse">
      <stop stop-color="#F7FBFF"/>
      <stop offset="1" stop-color="#EAF4FF"/>
    </linearGradient>
  </defs>
</svg>
